<svg width="36" height="36" viewBox="0 0 36 36" fill="none" xmlns="http://www.w3.org/2000/svg">
<path d="M35.1026 0C35.1042 0.00919068 35.1054 0.0183808 35.1069 0.0275715C33.0889 5.98653 29.3836 11.2879 25.0362 15.7757C23.9975 16.8478 23.6548 17.1392 22.9705 17.825C23.3596 17.1579 23.6776 16.4449 24.0156 15.7531C24.8921 13.9592 25.5161 12.4125 26.0024 10.4697C25.0223 11.0659 23.7076 11.6343 22.6491 12.1236C21.127 12.8272 18.0358 13.8151 17.1559 15.2728C16.9668 15.5912 16.9129 15.972 17.0061 16.3304C17.3387 17.5887 19.2654 18.0882 20.3573 18.4617C23.0042 19.3673 26.3843 20.3979 27.1887 23.4519C27.5334 24.7604 27.2689 26.2115 26.5701 27.3705C24.3469 30.8473 19.9106 32.3425 16.1142 33.3417C15.8549 33.4121 14.6694 33.7696 14.5099 33.6178C14.6101 33.4496 15.2211 33.276 15.4316 33.1919C18.5944 31.9604 24.4001 29.1582 23.247 24.8178C21.9989 20.1201 9.72567 21.8643 12.9705 14.5777C13.4594 13.4796 15.4575 11.8896 16.5813 11.5614C15.9565 11.54 15.3836 11.4566 14.8519 11.0985C14.3026 10.7269 13.9289 10.1469 13.8177 9.49311C13.57 8.10868 14.4409 6.78151 15.849 6.53821C17.1878 6.30688 18.5963 7.39067 18.7196 8.74776C18.7985 9.6156 18.5385 10.1243 18.0175 10.7988C18.3901 10.6306 18.7781 10.473 19.157 10.3216C24.1514 8.32539 29.1261 6.03546 33.0306 2.24014C33.7631 1.52819 34.4241 0.76486 35.1026 0Z" fill="#14B8A6"/>
<path d="M7.9852 11.5884C8.33824 11.5607 8.63473 11.5755 8.97072 11.6902C9.49631 11.8685 9.92913 12.249 10.1733 12.7474C10.4769 13.3736 10.4398 14.0651 10.2127 14.7079C11.4645 13.7493 11.9246 13.4719 13.3623 12.7884C12.7169 13.3595 12.1406 14.0462 11.7585 14.8223C11.2508 15.8534 11.1467 17.1212 11.5285 18.213C12.5933 21.258 17.1338 21.7261 19.6836 22.967C20.6193 23.4225 21.5126 24.0701 21.86 25.0976C22.1627 25.9931 21.9929 26.9892 21.5732 27.8181C19.2905 32.3265 7.56865 34.4567 2.88892 36C3.50696 35.3418 4.14487 34.5823 4.74782 33.8983C5.93087 32.5553 7.12449 31.2212 8.32858 29.897C9.72271 28.3345 11.1608 26.8236 12.5622 25.274C11.8779 26.7421 11.0524 29.4629 10.5995 31.0144C12.6744 30.2662 14.6993 29.7953 16.5525 28.4639C17.9876 27.5407 18.0003 25.8381 16.2793 25.1805C12.2365 23.6358 6.16459 23.3348 4.89518 18.2375C4.56553 16.9138 4.7256 15.433 4.92017 14.0768C5.4063 17.0055 5.97495 18.0255 8.5564 19.5289C8.55131 19.5012 8.54662 19.4735 8.54232 19.4457C8.29264 17.8855 8.7266 16.665 9.64442 15.4112C9.34441 15.6076 9.08515 15.7445 8.73055 15.8247C8.19608 15.9484 7.63428 15.8536 7.17009 15.5612C6.6788 15.2505 6.33127 14.7573 6.20409 14.1901C6.07589 13.6209 6.18019 13.024 6.49385 12.532C6.86132 11.9673 7.34952 11.7275 7.9852 11.5884Z" fill="#0D9488"/>
<path d="M15.6842 1.82786C16.9522 1.72938 19.9082 1.95891 21.0433 2.51043C19.71 2.25063 18.3488 2.16361 16.9933 2.25157C12.9438 2.50961 9.16574 4.37645 6.50068 7.43617C3.83835 10.5156 2.32889 14.6024 2.62339 18.6888C2.8932 22.4329 4.57412 26.0787 7.43648 28.5439C7.64048 28.7102 7.7713 28.8129 7.99598 28.958C7.44786 29.4786 6.69247 30.3765 6.1898 30.9499C6.01353 30.7508 5.55388 30.3566 5.33925 30.1603C4.88069 29.7484 4.4449 29.312 4.03382 28.8524C-1.37999 22.7808 -1.31644 13.4581 4.056 7.40042C7.16233 3.89787 11.0169 2.07417 15.6842 1.82786Z" fill="#0D9488"/>
<path d="M25.2465 1.6301C26.1074 1.48109 26.982 1.80625 27.5363 2.48155C28.0908 3.15681 28.2394 4.07795 27.9257 4.89334C27.6119 5.70877 26.8841 6.29263 26.02 6.42208C24.7049 6.61907 23.4762 5.72124 23.2643 4.4085C23.0524 3.09572 23.9362 1.85685 25.2465 1.6301Z" fill="#0D9488"/>
<path d="M17.8369 2.91895C18.8591 2.91988 19.7272 2.97781 20.7338 3.17273C21.2719 3.27695 21.7949 3.41133 22.3285 3.51466C22.2869 4.20329 22.3001 4.79901 22.5435 5.45577C21.9192 5.16221 21.2766 4.90972 20.6194 4.69986C16.9646 3.54747 13.4003 4.13247 10.0621 5.87048C8.65048 6.65294 7.66504 7.46211 6.58496 8.64329C6.75966 8.30687 7.12788 7.86791 7.39327 7.59215C10.2694 4.60338 13.7056 3.04288 17.8369 2.91895Z" fill="#0D9488"/>
</svg>
