<svg width="165" height="36" viewBox="0 0 165 36" fill="none" xmlns="http://www.w3.org/2000/svg">
<path d="M35.1026 0C35.1042 0.00919068 35.1054 0.0183808 35.1069 0.0275715C33.0889 5.98653 29.3836 11.2879 25.0362 15.7757C23.9975 16.8478 23.6548 17.1392 22.9705 17.825C23.3596 17.1579 23.6776 16.4449 24.0156 15.7531C24.8921 13.9592 25.5161 12.4125 26.0024 10.4697C25.0223 11.0659 23.7076 11.6343 22.6491 12.1236C21.127 12.8272 18.0358 13.8151 17.1559 15.2728C16.9668 15.5912 16.9129 15.972 17.0061 16.3304C17.3387 17.5887 19.2654 18.0882 20.3573 18.4617C23.0042 19.3673 26.3843 20.3979 27.1887 23.4519C27.5334 24.7604 27.2689 26.2115 26.5701 27.3705C24.3469 30.8473 19.9106 32.3425 16.1142 33.3417C15.8549 33.4121 14.6694 33.7696 14.5099 33.6178C14.6101 33.4496 15.2211 33.276 15.4316 33.1919C18.5944 31.9604 24.4001 29.1582 23.247 24.8178C21.9989 20.1201 9.72567 21.8643 12.9705 14.5777C13.4594 13.4796 15.4575 11.8896 16.5813 11.5614C15.9565 11.54 15.3836 11.4566 14.8519 11.0985C14.3026 10.7269 13.9289 10.1469 13.8177 9.49311C13.57 8.10868 14.4409 6.78151 15.849 6.53821C17.1878 6.30688 18.5963 7.39067 18.7196 8.74776C18.7985 9.6156 18.5385 10.1243 18.0175 10.7988C18.3901 10.6306 18.7781 10.473 19.157 10.3216C24.1514 8.32539 29.1261 6.03546 33.0306 2.24014C33.7631 1.52819 34.4241 0.76486 35.1026 0Z" fill="#14B8A6"/>
<path d="M7.9852 11.5884C8.33824 11.5607 8.63473 11.5755 8.97072 11.6902C9.49631 11.8685 9.92913 12.249 10.1733 12.7474C10.4769 13.3736 10.4398 14.0651 10.2127 14.7079C11.4645 13.7493 11.9246 13.4719 13.3623 12.7884C12.7169 13.3595 12.1406 14.0462 11.7585 14.8223C11.2508 15.8534 11.1467 17.1212 11.5285 18.213C12.5933 21.258 17.1338 21.7261 19.6836 22.967C20.6193 23.4225 21.5126 24.0701 21.86 25.0976C22.1627 25.9931 21.9929 26.9892 21.5732 27.8181C19.2905 32.3265 7.56865 34.4567 2.88892 36C3.50696 35.3418 4.14487 34.5823 4.74782 33.8983C5.93087 32.5553 7.12449 31.2212 8.32858 29.897C9.72271 28.3345 11.1608 26.8236 12.5622 25.274C11.8779 26.7421 11.0524 29.4629 10.5995 31.0144C12.6744 30.2662 14.6993 29.7953 16.5525 28.4639C17.9876 27.5407 18.0003 25.8381 16.2793 25.1805C12.2365 23.6358 6.16459 23.3348 4.89518 18.2375C4.56553 16.9138 4.7256 15.433 4.92017 14.0768C5.4063 17.0055 5.97495 18.0255 8.5564 19.5289C8.55131 19.5012 8.54662 19.4735 8.54232 19.4457C8.29264 17.8855 8.7266 16.665 9.64442 15.4112C9.34441 15.6076 9.08515 15.7445 8.73055 15.8247C8.19608 15.9484 7.63428 15.8536 7.17009 15.5612C6.6788 15.2505 6.33127 14.7573 6.20409 14.1901C6.07589 13.6209 6.18019 13.024 6.49385 12.532C6.86132 11.9673 7.34952 11.7275 7.9852 11.5884Z" fill="#0D9488"/>
<path d="M15.6842 1.82786C16.9522 1.72938 19.9082 1.95891 21.0433 2.51043C19.71 2.25063 18.3488 2.16361 16.9933 2.25157C12.9438 2.50961 9.16574 4.37645 6.50068 7.43617C3.83835 10.5156 2.32889 14.6024 2.62339 18.6888C2.8932 22.4329 4.57412 26.0787 7.43648 28.5439C7.64048 28.7102 7.7713 28.8129 7.99598 28.958C7.44786 29.4786 6.69247 30.3765 6.1898 30.9499C6.01353 30.7508 5.55388 30.3566 5.33925 30.1603C4.88069 29.7484 4.4449 29.312 4.03382 28.8524C-1.37999 22.7808 -1.31644 13.4581 4.056 7.40042C7.16233 3.89787 11.0169 2.07417 15.6842 1.82786Z" fill="#0D9488"/>
<path d="M25.2465 1.6301C26.1074 1.48109 26.982 1.80625 27.5363 2.48155C28.0908 3.15681 28.2394 4.07795 27.9257 4.89334C27.6119 5.70877 26.8841 6.29263 26.02 6.42208C24.7049 6.61907 23.4762 5.72124 23.2643 4.4085C23.0524 3.09572 23.9362 1.85685 25.2465 1.6301Z" fill="#0D9488"/>
<path d="M17.8369 2.91895C18.8591 2.91988 19.7272 2.97781 20.7338 3.17273C21.2719 3.27695 21.7949 3.41133 22.3285 3.51466C22.2869 4.20329 22.3001 4.79901 22.5435 5.45577C21.9192 5.16221 21.2766 4.90972 20.6194 4.69986C16.9646 3.54747 13.4003 4.13247 10.0621 5.87048C8.65048 6.65294 7.66504 7.46211 6.58496 8.64329C6.75966 8.30687 7.12788 7.86791 7.39327 7.59215C10.2694 4.60338 13.7056 3.04288 17.8369 2.91895Z" fill="#0D9488"/>
<path d="M52.1235 15.3252C51.895 15.2139 51.5933 15.0879 51.2183 14.9473C50.8433 14.8066 50.4185 14.6748 49.9438 14.5518C49.4692 14.4229 48.9536 14.3174 48.397 14.2354C47.8403 14.1475 47.269 14.1035 46.6831 14.1035C46.2144 14.1035 45.813 14.1182 45.479 14.1475C45.1509 14.1768 44.8726 14.2148 44.644 14.2617C44.4214 14.3086 44.2427 14.3643 44.1079 14.4287C43.979 14.4873 43.8794 14.5488 43.8091 14.6133C43.7388 14.6777 43.6919 14.7422 43.6685 14.8066C43.6509 14.8711 43.6421 14.9297 43.6421 14.9824C43.6421 15.1582 43.73 15.3135 43.9058 15.4482C44.0815 15.5771 44.3218 15.6943 44.6265 15.7998C44.9312 15.8994 45.2856 15.9961 45.6899 16.0898C46.0942 16.1777 46.522 16.2715 46.9731 16.3711C47.4302 16.4648 47.8989 16.5703 48.3794 16.6875C48.8657 16.7988 49.3345 16.9307 49.7856 17.083C50.2427 17.2354 50.6733 17.4141 51.0776 17.6191C51.4819 17.8184 51.8364 18.0527 52.1411 18.3223C52.4458 18.5918 52.686 18.9023 52.8618 19.2539C53.0376 19.6055 53.1255 20.0068 53.1255 20.458C53.1255 21.0381 53.0229 21.5361 52.8179 21.9521C52.6128 22.3682 52.3374 22.7197 51.9917 23.0068C51.6519 23.2939 51.2563 23.5254 50.8052 23.7012C50.354 23.8711 49.8794 24.0029 49.3813 24.0967C48.8892 24.1904 48.3882 24.252 47.8784 24.2812C47.3745 24.3105 46.894 24.3252 46.437 24.3252C45.2417 24.3252 44.1343 24.2256 43.1147 24.0264C42.1011 23.833 41.2046 23.5898 40.4253 23.2969V20.4141C41.228 20.8594 42.1421 21.208 43.1675 21.46C44.1987 21.7119 45.3003 21.8379 46.4722 21.8379C47.1636 21.8379 47.7261 21.8027 48.1597 21.7324C48.5991 21.6562 48.9419 21.5625 49.188 21.4512C49.4341 21.334 49.6011 21.208 49.689 21.0732C49.7769 20.9385 49.8208 20.8096 49.8208 20.6865C49.8208 20.4932 49.7329 20.3262 49.5571 20.1855C49.3813 20.0391 49.1411 19.9131 48.8364 19.8076C48.5317 19.6963 48.1772 19.5967 47.7729 19.5088C47.3687 19.415 46.938 19.3242 46.481 19.2363C46.0298 19.1426 45.564 19.043 45.0835 18.9375C44.603 18.832 44.1343 18.709 43.6772 18.5684C43.2261 18.4219 42.7983 18.2549 42.394 18.0674C41.9897 17.874 41.6353 17.6484 41.3306 17.3906C41.0259 17.127 40.7856 16.8252 40.6099 16.4854C40.4341 16.1396 40.3462 15.7412 40.3462 15.29C40.3462 14.7568 40.4399 14.2969 40.6274 13.9102C40.8149 13.5234 41.0669 13.1953 41.3833 12.9258C41.7056 12.6504 42.0747 12.4277 42.4907 12.2578C42.9126 12.0879 43.355 11.9561 43.8179 11.8623C44.2808 11.7686 44.7495 11.7041 45.2241 11.6689C45.6987 11.6338 46.1499 11.6162 46.5776 11.6162C47.0464 11.6162 47.5269 11.6396 48.019 11.6865C48.5171 11.7334 49.0063 11.8008 49.4868 11.8887C49.9673 11.9707 50.4302 12.0674 50.8755 12.1787C51.3267 12.29 51.7427 12.4072 52.1235 12.5303V15.3252ZM62.9868 14.5518V24H59.7261V14.5518H54.6021V11.9238H68.1196V14.5518H62.9868ZM79.2817 21.7148H72.5493L71.4155 24H67.7769L74.0962 11.9238H77.7349L84.0542 24H80.4155L79.2817 21.7148ZM73.7183 19.3594H78.1304L75.9331 14.9121L73.7183 19.3594ZM89.2925 14.499V16.5996H97.1411V19.1748H89.2925V24H86.0317V11.9238H97.5718V14.499H89.2925ZM103.619 14.499V16.5996H111.467V19.1748H103.619V24H100.358V11.9238H111.898V14.499H103.619ZM121.452 14.5518V24H118.191V14.5518H113.067V11.9238H126.584V14.5518H121.452ZM144.198 17.9707C144.198 19.0078 144.007 19.9248 143.626 20.7217C143.246 21.5127 142.701 22.1748 141.992 22.708C141.283 23.2412 140.421 23.6455 139.408 23.9209C138.4 24.1904 137.266 24.3252 136.006 24.3252C134.747 24.3252 133.607 24.1904 132.587 23.9209C131.574 23.6455 130.709 23.2412 129.995 22.708C129.28 22.1748 128.729 21.5127 128.342 20.7217C127.956 19.9248 127.762 19.0078 127.762 17.9707C127.762 16.9336 127.956 16.0195 128.342 15.2285C128.729 14.4316 129.28 13.7666 129.995 13.2334C130.709 12.7002 131.574 12.2988 132.587 12.0293C133.607 11.7539 134.747 11.6162 136.006 11.6162C137.266 11.6162 138.4 11.7539 139.408 12.0293C140.421 12.2988 141.283 12.7002 141.992 13.2334C142.701 13.7666 143.246 14.4316 143.626 15.2285C144.007 16.0195 144.198 16.9336 144.198 17.9707ZM140.902 17.9707C140.902 17.5195 140.829 17.0713 140.682 16.626C140.542 16.1748 140.287 15.7705 139.917 15.4131C139.554 15.0557 139.056 14.7656 138.423 14.543C137.791 14.3203 136.985 14.209 136.006 14.209C135.35 14.209 134.773 14.2617 134.275 14.3672C133.777 14.4668 133.346 14.6074 132.983 14.7891C132.62 14.9707 132.315 15.1846 132.069 15.4307C131.823 15.6709 131.626 15.9316 131.48 16.2129C131.333 16.4883 131.228 16.7783 131.164 17.083C131.105 17.3818 131.076 17.6777 131.076 17.9707C131.076 18.2695 131.105 18.5713 131.164 18.876C131.228 19.1807 131.333 19.4736 131.48 19.7549C131.626 20.0303 131.823 20.2881 132.069 20.5283C132.315 20.7686 132.62 20.9795 132.983 21.1611C133.346 21.3369 133.777 21.4775 134.275 21.583C134.773 21.6826 135.35 21.7324 136.006 21.7324C136.985 21.7324 137.791 21.6211 138.423 21.3984C139.056 21.1758 139.554 20.8857 139.917 20.5283C140.287 20.1709 140.542 19.7695 140.682 19.3242C140.829 18.873 140.902 18.4219 140.902 17.9707ZM158.577 24L150.429 15.7031V24H147.168V11.9238H150.71L158.867 20.2559V11.9238H162.11V24H158.577Z" fill="#0F172A"/>
</svg>
